<svg xmlns="http://www.w3.org/2000/svg" xmlns:xlink="http://www.w3.org/1999/xlink" viewBox="0,0,256,256" width="48px" height="48px" fill-rule="nonzero"><g fill="none" fill-rule="nonzero" stroke="none" stroke-width="1" stroke-linecap="butt" stroke-linejoin="miter" stroke-miterlimit="10" stroke-dasharray="" stroke-dashoffset="0" font-family="none" font-weight="none" font-size="none" text-anchor="none" style="mix-blend-mode: normal"><g transform="scale(5.33333,5.33333)"><path d="M9,33.286v-17.573c0,-0.632 0.764,-0.949 1.211,-0.502l5.789,5.789v-17.289c0,-0.632 0.764,-0.948 1.21,-0.501l21.204,21.204c0.375,0.375 0.586,0.884 0.586,1.414v7.457c0,1.095 -0.449,2.142 -1.241,2.897l-8.39,7.99c-0.558,0.532 -1.299,0.828 -2.069,0.828h-6.6c-0.77,0 -1.511,-0.296 -2.069,-0.828l-8.39,-7.99c-0.792,-0.755 -1.241,-1.802 -1.241,-2.896z" fill="#686767"></path><path d="M27.106,25.394l-3.106,3.106l-3.106,-3.106c-0.503,-0.503 -1.31,-0.53 -1.845,-0.061l-2.707,2.369c-0.218,0.189 -0.342,0.463 -0.342,0.752v2.218c0,0.53 0.211,1.039 0.586,1.414l6.564,6.564c0.47,0.47 1.231,0.47 1.701,0l6.564,-6.564c0.374,-0.375 0.585,-0.884 0.585,-1.414v-2.218c0,-0.288 -0.124,-0.563 -0.341,-0.753l-2.707,-2.369c-0.536,-0.468 -1.343,-0.441 -1.846,0.062z" fill="#00b5ff"></path></g></g></svg>